# xmcd
#
# Track frame offsets: 
#        150
#        4766
#        30869
#        60632
#        85755
#        107205
#        127331
#        153848
#        185617
#        208779
#
# Disc length: 3131 seconds
#
# Revision: 0
# Processed by: cddbd v1.5.2PL0 Copyright (c) Steve Scherf et al.
# Submitted via: ExactAudioCopyFreeDBPlugin 1.0
#
DISCID=7e0c390a
DTITLE=Lakol - The Boss
DYEAR=2012
DGENRE=World
TTITLE0=Intro
TTITLE1=Electricite
TTITLE2=Tyeker
TTITLE3=Tralala
TTITLE4=Youn Seul Fan'm
TTITLE5=Radio
TTITLE6=The Boss
TTITLE7=Priere Pour Haiti
TTITLE8=Kitemele'm You Dan'm
TTITLE9=High
EXTD=
EXTT0=
EXTT1=
EXTT2=
EXTT3=
EXTT4=
EXTT5=
EXTT6=
EXTT7=
EXTT8=
EXTT9=
PLAYORDER=
